<svg xmlns="http://www.w3.org/2000/svg" xmlns:xlink="http://www.w3.org/1999/xlink" viewBox="0,0,256,256" width="144px" height="144px" fill-rule="nonzero"><g transform="translate(51.2,51.2) scale(0.6,0.6)"><g fill="#009961" fill-rule="nonzero" stroke="none" stroke-width="1" stroke-linecap="butt" stroke-linejoin="miter" stroke-miterlimit="10" stroke-dasharray="" stroke-dashoffset="0" font-family="none" font-weight="none" font-size="none" text-anchor="none" style="mix-blend-mode: normal"><path d="M-85.33333,341.33333v-426.66667h426.66667v426.66667z" id="bgRectangle"></path></g><g fill="#ffffff" fill-rule="nonzero" stroke="none" stroke-width="1" stroke-linecap="butt" stroke-linejoin="miter" stroke-miterlimit="10" stroke-dasharray="" stroke-dashoffset="0" font-family="none" font-weight="none" font-size="none" text-anchor="none" style="mix-blend-mode: normal"><g transform="scale(10.66667,10.66667)"><path d="M12,2.00781c-5.523,0 -10,4.477 -10,10c0,5.46107 4.37896,9.89138 9.81641,9.99024c0.0033,0.00006 0.00646,0.0019 0.00977,0.00195c0.1099,0.0185 0.22213,0.0185 0.33203,0c5.44931,-0.08535 9.8418,-4.52255 9.8418,-9.99219c0,-5.522 -4.477,-10 -10,-10zM12,4.00781c4.411,0 8,3.589 8,8c0,4.07152 -3.0604,7.43685 -7,7.93164v-5.93945h2c0.36064,0.0051 0.69608,-0.18438 0.87789,-0.49587c0.18181,-0.3115 0.18181,-0.69676 0,-1.00825c-0.18181,-0.3115 -0.51725,-0.50097 -0.87789,-0.49587h-2v-1c0,-0.56503 0.43497,-1 1,-1h1c0.36064,0.0051 0.69608,-0.18438 0.87789,-0.49587c0.18181,-0.3115 0.18181,-0.69676 0,-1.00825c-0.18181,-0.3115 -0.51725,-0.50097 -0.87789,-0.49587h-1c-1.64497,0 -3,1.35503 -3,3v1h-1c-0.36064,-0.0051 -0.69608,0.18438 -0.87789,0.49587c-0.18181,0.3115 -0.18181,0.69676 0,1.00825c0.18181,0.3115 0.51725,0.50097 0.87789,0.49587h1v5.93945c-3.9396,-0.49479 -7,-3.86012 -7,-7.93164c0,-4.411 3.589,-8 8,-8z"></path></g></g></g></svg>