<svg xmlns="http://www.w3.org/2000/svg" xmlns:xlink="http://www.w3.org/1999/xlink" viewBox="0,0,256,256" width="144px" height="144px" fill-rule="nonzero"><g transform="translate(51.2,51.2) scale(0.6,0.6)"><g fill="#009961" fill-rule="nonzero" stroke="none" stroke-width="1" stroke-linecap="butt" stroke-linejoin="miter" stroke-miterlimit="10" stroke-dasharray="" stroke-dashoffset="0" font-family="none" font-weight="none" font-size="none" text-anchor="none" style="mix-blend-mode: normal"><path d="M-85.33333,341.33333v-426.66667h426.66667v426.66667z" id="bgRectangle"></path></g><g fill="#ffffff" fill-rule="nonzero" stroke="none" stroke-width="1" stroke-linecap="butt" stroke-linejoin="miter" stroke-miterlimit="10" stroke-dasharray="" stroke-dashoffset="0" font-family="none" font-weight="none" font-size="none" text-anchor="none" style="mix-blend-mode: normal"><g transform="scale(5.33333,5.33333)"><path d="M17,5c-6.60966,0 -12,5.39034 -12,12c0,1.78953 0.445,3.46676 1.14844,4.99023c-0.07712,0.64874 -0.14844,1.30688 -0.14844,2.00977c0,6.40745 3.35879,12.05188 8.41602,15.23828c0.45352,0.30276 1.0356,0.33558 1.52028,0.08573c0.48468,-0.24985 0.79562,-0.74302 0.8121,-1.28806c0.01648,-0.54504 -0.26408,-1.0561 -0.73277,-1.33478c-4.21477,-2.6556 -7.01562,-7.34062 -7.01562,-12.70117c0,-0.66045 0.06079,-1.32639 0.15234,-2.00977c0.04013,-0.30376 -0.01372,-0.61252 -0.1543,-0.88477c-0.63641,-1.23671 -0.99805,-2.62342 -0.99805,-4.10547c0,-4.98834 4.01166,-9 9,-9c1.48205,0 2.86876,0.36163 4.10547,0.99805c0.47836,0.26572 1.06345,0.2499 1.52675,-0.04129c0.4633,-0.29119 0.73129,-0.81154 0.6993,-1.35781c-0.03199,-0.54627 -0.35888,-1.03179 -0.853,-1.26691c-1.63929,-0.84359 -3.50457,-1.33203 -5.47852,-1.33203zM29.43359,6.93945c-0.72142,0.03182 -1.3178,0.5731 -1.41919,1.28807c-0.10139,0.71497 0.32099,1.40072 1.00513,1.63185c5.81196,2.06298 9.98047,7.60191 9.98047,14.14063c0,0.66045 -0.06079,1.32639 -0.15234,2.00977c-0.04013,0.30376 0.01372,0.61252 0.1543,0.88477c0.63641,1.23671 0.99805,2.62342 0.99805,4.10547c0,4.98834 -4.01166,9 -9,9c-1.48205,0 -2.86876,-0.36163 -4.10547,-0.99805c-0.27224,-0.14058 -0.58101,-0.19443 -0.88477,-0.1543c-0.68338,0.09156 -1.34931,0.15234 -2.00977,0.15234c-1.07843,0 -2.12734,-0.11473 -3.13867,-0.33008c-0.81063,-0.17259 -1.60768,0.34464 -1.78027,1.15527c-0.17259,0.81063 0.34464,1.60768 1.15527,1.78027c1.21467,0.25865 2.4741,0.39453 3.76367,0.39453c0.70288,0 1.36102,-0.07131 2.00977,-0.14844c1.52347,0.70344 3.2007,1.14844 4.99023,1.14844c6.60966,0 12,-5.39034 12,-12c0,-1.78953 -0.445,-3.46676 -1.14844,-4.99023c0.07712,-0.64874 0.14844,-1.30688 0.14844,-2.00977c0,-7.81529 -4.99253,-14.48778 -11.97656,-16.9668c-0.18834,-0.07047 -0.38893,-0.10235 -0.58984,-0.09375zM24.69531,13.7832c-7.499,0 -7.78516,4.75692 -7.78516,5.79492c0,5.966 10.11523,5.69039 10.11523,9.27539c0,2.187 -2.36592,2.28906 -3.41992,2.28906c-1.987,0 -4.05973,-1.45117 -4.80273,-1.45117c-0.743,0 -1.83203,0.588 -1.83203,1.625c0,2.54 4.50309,3.08398 5.62109,3.08398c1.089,0 8.58008,0.32655 8.58008,-5.81445c0,-6.238 -10.07227,-6.23886 -10.07227,-9.25586c0,-0.306 -0.08808,-2.40625 3.41992,-2.40625c2.54,0 3.04116,1.12305 4.28516,1.12305c0.642,0 1.59961,-0.36353 1.59961,-1.76953c0,-1.916 -3.69298,-2.49414 -5.70898,-2.49414z"></path></g></g></g></svg>